<svg width="94" height="94" viewBox="0 0 94 94" fill="none" xmlns="http://www.w3.org/2000/svg">
<path d="M46.728 0C20.962 0 0 20.962 0 46.729C0 72.493 20.962 93.456 46.728 93.456C72.494 93.456 93.456 72.493 93.456 46.729C93.455 20.961 72.493 0 46.728 0ZM87.408 55.983C82.828 50.266 81.096 42.265 79.943 41.164C78.351 39.64 75.65 34.93 76.273 34.999C76.535 35.028 76.859 34.861 77.144 34.658C77.578 34.352 77.308 33.894 76.689 33.567C75.269 32.819 72.976 30.947 72.185 26.479C71.22 21.033 61.986 16.656 58.675 15.249C58.029 14.975 57.884 14.363 58.084 13.692C58.606 11.94 58.991 8.722 58.33 9.23C57.431 9.923 58.054 10.823 56.668 11.516C55.962 11.869 55.202 12.456 54.626 12.947C54.095 13.401 53.321 13.709 52.86 13.743C52.401 13.778 51.74 13.707 51.348 13.421C50.957 13.134 50.671 13.32 50.709 13.837C50.747 14.353 50.354 15.147 49.854 15.637C48.565 16.9 47.974 17.775 47.729 18.373C47.463 19.021 47.436 19.986 47.002 20.536C43.605 24.849 39.574 31.381 38.933 32.921C38.717 33.441 38.704 33.838 38.787 34.14C38.972 34.805 39.475 35.6 39.735 36.25C40.177 37.355 41.597 37.183 42.465 37.562C43.574 38.047 47.799 38.255 46.968 36.731C46.491 35.857 47.268 35.051 48.017 34.523C48.589 34.119 49.579 33.551 50.237 33.307C51.987 32.656 54.243 32.665 56.043 31.259C58.26 29.527 57.014 39.017 56.734 40.264C56.459 41.511 54.588 45.598 52.164 48.507C50.894 50.03 50.631 51.287 50.669 52.14C50.699 52.839 50.423 53.439 49.751 53.637C49.053 53.842 47.992 54.197 46.414 54.812C42.674 56.267 35.608 55.574 31.452 58.275C27.296 60.976 23.417 59.73 21.547 61.945C19.677 64.163 17.391 62.568 16.905 64.103C16.421 65.638 13.858 65.824 13.373 66.863C12.888 67.902 18.152 69.564 19.192 69.634C19.996 69.689 21.216 68.993 21.886 67.777C22.224 67.165 22.355 65.902 22.958 65.547C23.185 65.414 23.441 65.358 23.695 65.343C24.395 65.307 25.257 65.065 25.808 64.635C27.332 63.447 30.182 62.332 32.282 61.393C34.914 60.215 34.844 62.225 37.132 61.325C38.527 60.774 40.283 60.948 41.44 61.166C42.128 61.296 42.229 61.831 41.862 62.428C40.898 64 40.073 66.859 41.634 68.044C43.644 69.567 45.305 78.435 47.315 78.919C49.323 79.403 50.639 81.204 51.816 81.827C52.505 82.192 53.716 82.889 54.601 83.405C55.206 83.757 55.912 83.526 55.943 82.827C55.976 82.104 55.964 80.956 55.835 79.127C55.488 74.209 50.432 78.019 51.057 77.049C51.68 76.079 50.156 75.87 47.661 72.339C45.167 68.806 44.336 64.373 48.701 65.62C51.652 66.464 54.637 66.166 56.26 65.885C56.948 65.765 57.906 66.014 58.414 66.495C64.923 72.647 69.965 76.17 73.812 78.433C66.517 84.676 57.056 88.459 46.723 88.459C23.714 88.459 4.995 69.739 4.995 46.732C4.995 23.723 23.714 5.004 46.723 5.004C69.732 5.004 88.453 23.72 88.453 46.729C88.455 49.909 88.085 53.003 87.408 55.983Z" fill="black"/>
</svg>
